<svg width="217" height="85" viewBox="0 0 217 85" fill="none" xmlns="http://www.w3.org/2000/svg">
<rect width="217" height="85" fill="#EDE6DB"/>
<mask id="mask0_16_100" style="mask-type:alpha" maskUnits="userSpaceOnUse" x="12" y="10" width="93" height="58">
<path d="M45.1976 68L12 10H46V37L98 37.5V58C98 65 103.5 68 105 68H45.1976Z" fill="#D9D9D9"/>
</mask>
<g mask="url(#mask0_16_100)">
<rect x="12" y="10" width="104" height="11.6" fill="#72C5D9"/>
<rect x="12" y="21.6001" width="104" height="11.6" fill="#4A9CC4"/>
<rect x="12" y="33.2" width="104" height="11.6" fill="#EFC94D"/>
<rect x="12" y="44.8" width="104" height="11.6" fill="#F09343"/>
<rect x="12" y="56.3999" width="104" height="11.6" fill="#E15045"/>
</g>
<path d="M47.1688 71L199 71V75H49.5621L47.1688 71Z" fill="#232323"/>
<rect x="43.5" y="1.5" width="70" height="38" fill="#EDE6DB"/>
<mask id="path-9-outside-1_16_100" maskUnits="userSpaceOnUse" x="44" y="7" width="158" height="64" fill="black">
<rect fill="white" x="44" y="7" width="158" height="64"/>
<path d="M47 35.9622V10H62.9628C64.3734 10 65.648 10.2967 66.7864 10.8901C67.9496 11.4836 68.8776 12.3119 69.5706 13.3751C70.2635 14.4383 70.61 15.687 70.61 17.1211C70.61 17.8381 70.4739 18.5304 70.2017 19.198C69.9542 19.8656 69.5953 20.4838 69.1251 21.0525C68.6796 21.5965 68.1476 22.0786 67.5288 22.499C68.2713 22.9193 68.9148 23.4509 69.4592 24.0938C70.0284 24.7119 70.4615 25.4166 70.7585 26.2078C71.0802 26.9744 71.2411 27.7903 71.2411 28.6557C71.2411 30.1145 70.8823 31.4003 70.1646 32.513C69.4716 33.6009 68.5312 34.4539 67.3432 35.0721C66.1553 35.6655 64.8436 35.9622 63.4082 35.9622H47ZM55.0185 29.8796H61.5892C61.9852 29.8796 62.3193 29.7931 62.5915 29.62C62.8638 29.4469 63.0741 29.212 63.2226 28.9153C63.3959 28.5939 63.4825 28.2477 63.4825 27.8769C63.4825 27.506 63.3959 27.1845 63.2226 26.9125C63.0741 26.6158 62.8638 26.3809 62.5915 26.2078C62.3193 26.0348 61.9852 25.9482 61.5892 25.9482H55.0185V29.8796ZM55.0185 20.014H60.6611C61.0324 20.014 61.3541 19.9275 61.6263 19.7544C61.8986 19.5566 62.1089 19.3217 62.2574 19.0497C62.4059 18.753 62.4802 18.4439 62.4802 18.1225C62.4802 17.7763 62.4059 17.4672 62.2574 17.1952C62.1089 16.9233 61.8986 16.7007 61.6263 16.5276C61.3789 16.3546 61.0571 16.268 60.6611 16.268H55.0185V20.014Z"/>
<path d="M73.0819 35.9622V22.7215C73.0819 20.8918 73.614 19.4453 74.6782 18.3821C75.7423 17.3189 77.2272 16.7873 79.1329 16.7873H85.2952V22.1652H81.6201C81.1994 22.1652 80.8529 22.3012 80.5807 22.5731C80.3332 22.8204 80.2094 23.1542 80.2094 23.5745V35.9622H73.0819Z"/>
<path d="M96.7583 36.4073C94.8279 36.4073 93.0584 35.987 91.4498 35.1463C89.8659 34.3056 88.5913 33.1311 87.6261 31.6228C86.6857 30.0898 86.2155 28.3343 86.2155 26.3562C86.2155 24.3781 86.6857 22.635 87.6261 21.1267C88.5913 19.6184 89.8782 18.4439 91.4869 17.6032C93.0955 16.7378 94.8651 16.3051 96.7954 16.3051C98.7258 16.3051 100.483 16.7378 102.067 17.6032C103.651 18.4439 104.913 19.6184 105.853 21.1267C106.794 22.635 107.264 24.3781 107.264 26.3562C107.264 28.3343 106.794 30.0898 105.853 31.6228C104.913 33.1311 103.638 34.3056 102.03 35.1463C100.446 35.987 98.6887 36.4073 96.7583 36.4073ZM96.7583 30.028C97.4265 30.028 98.0205 29.8673 98.5402 29.5459C99.0599 29.2244 99.4559 28.7917 99.7281 28.2477C100.025 27.679 100.174 27.0362 100.174 26.3191C100.174 25.6021 100.025 24.9716 99.7281 24.4276C99.4559 23.8836 99.0599 23.4509 98.5402 23.1295C98.0205 22.808 97.4265 22.6473 96.7583 22.6473C96.0901 22.6473 95.4962 22.808 94.9764 23.1295C94.4567 23.4509 94.0484 23.8836 93.7514 24.4276C93.4544 24.9716 93.3059 25.6021 93.3059 26.3191C93.3059 27.0362 93.4544 27.679 93.7514 28.2477C94.0484 28.7917 94.4567 29.2244 94.9764 29.5459C95.4962 29.8673 96.0901 30.028 96.7583 30.028Z"/>
<path d="M117.432 36.4444C116.046 36.4444 114.722 36.1724 113.46 35.6284C112.223 35.0597 111.208 34.2314 110.416 33.1435C109.649 32.0308 109.265 30.6462 109.265 28.9895V16.7502H116.356V29.6571C116.356 29.8796 116.405 30.0775 116.504 30.2505C116.603 30.3989 116.739 30.5225 116.912 30.6214C117.086 30.7203 117.259 30.7698 117.432 30.7698C117.63 30.7698 117.803 30.7203 117.952 30.6214C118.1 30.5225 118.224 30.3989 118.323 30.2505C118.422 30.0775 118.472 29.8796 118.472 29.6571V23.76C118.472 22.1281 118.855 20.7558 119.622 19.6431C120.414 18.5304 121.429 17.7021 122.666 17.1582C123.929 16.5895 125.265 16.3051 126.676 16.3051C128.111 16.3051 129.448 16.5895 130.685 17.1582C131.922 17.7021 132.925 18.5304 133.692 19.6431C134.484 20.7558 134.88 22.1281 134.88 23.76V29.6571C134.88 29.8796 134.929 30.0775 135.028 30.2505C135.127 30.3989 135.263 30.5225 135.437 30.6214C135.61 30.7203 135.783 30.7698 135.956 30.7698C136.154 30.7698 136.328 30.7203 136.476 30.6214C136.649 30.5225 136.785 30.3989 136.884 30.2505C136.983 30.0775 137.033 29.8796 137.033 29.6571V16.7502H144.161V28.9895C144.161 30.6462 143.765 32.0308 142.973 33.1435C142.205 34.2314 141.191 35.0597 139.929 35.6284C138.691 36.1724 137.367 36.4444 135.956 36.4444C134.57 36.4444 133.246 36.1724 131.984 35.6284C130.747 35.0597 129.732 34.2314 128.94 33.1435C128.148 32.0308 127.752 30.6462 127.752 28.9895V23.0924C127.752 22.8451 127.703 22.6473 127.604 22.499C127.505 22.3259 127.369 22.1899 127.195 22.091C127.047 21.9921 126.874 21.9426 126.676 21.9426C126.502 21.9426 126.329 21.9921 126.156 22.091C125.983 22.1899 125.847 22.3259 125.748 22.499C125.649 22.6473 125.599 22.8451 125.599 23.0924V28.9895C125.599 30.6462 125.203 32.0308 124.411 33.1435C123.644 34.2314 122.629 35.0597 121.367 35.6284C120.13 36.1724 118.818 36.4444 117.432 36.4444Z"/>
<path d="M146.588 35.9622V30.9181H155.572C155.77 30.9181 155.931 30.8811 156.054 30.8069C156.178 30.708 156.277 30.5967 156.351 30.4731C156.426 30.3247 156.463 30.1764 156.463 30.028C156.463 29.8796 156.426 29.7437 156.351 29.62C156.277 29.4717 156.178 29.3604 156.054 29.2862C155.931 29.212 155.77 29.175 155.572 29.175H152.676C151.414 29.175 150.263 28.9648 149.224 28.5444C148.184 28.0994 147.355 27.4194 146.736 26.5046C146.143 25.565 145.846 24.3658 145.846 22.9069C145.846 21.7695 146.118 20.7434 146.662 19.8286C147.231 18.889 147.999 18.1472 148.964 17.6032C149.929 17.0345 150.993 16.7502 152.156 16.7502H161.92V21.7943H153.827C153.579 21.7943 153.369 21.8808 153.196 22.0539C153.047 22.227 152.973 22.4248 152.973 22.6473C152.973 22.8698 153.047 23.0677 153.196 23.2407C153.369 23.4138 153.579 23.5004 153.827 23.5004H156.5C157.935 23.5004 159.173 23.7229 160.212 24.168C161.276 24.5883 162.093 25.2559 162.662 26.1708C163.231 27.0856 163.516 28.2725 163.516 29.7313C163.516 30.8687 163.219 31.9072 162.625 32.8468C162.056 33.7863 161.289 34.5405 160.323 35.1092C159.358 35.6779 158.269 35.9622 157.057 35.9622H146.588Z"/>
<path d="M175.97 35.9622C173.817 35.9622 171.899 35.5913 170.216 34.8496C168.533 34.1078 167.197 33.0322 166.207 31.6228C165.242 30.1887 164.759 28.4455 164.759 26.3933C164.759 24.1432 165.242 22.2764 166.207 20.7929C167.172 19.3093 168.422 18.1966 169.956 17.4549C171.515 16.6884 173.149 16.3051 174.856 16.3051C176.613 16.3051 178.185 16.676 179.571 17.4178C180.982 18.1348 182.095 19.1733 182.912 20.5332C183.753 21.8932 184.174 23.5251 184.174 25.429C184.174 25.8988 184.149 26.4427 184.1 27.0609C184.05 27.6543 183.976 28.1612 183.877 28.5815H172.072C172.171 29.0019 172.357 29.3604 172.629 29.6571C172.901 29.9291 173.272 30.1269 173.743 30.2505C174.213 30.3742 174.745 30.436 175.339 30.436H182.207V35.9622H175.97ZM171.738 24.6501H177.603C177.603 24.3534 177.566 24.0691 177.492 23.7971C177.418 23.5251 177.294 23.2778 177.121 23.0553C176.972 22.808 176.787 22.5979 176.564 22.4248C176.341 22.227 176.069 22.0786 175.747 21.9797C175.45 21.8808 175.116 21.8314 174.745 21.8314C174.275 21.8314 173.854 21.9055 173.483 22.0539C173.136 22.2022 172.839 22.4001 172.592 22.6473C172.344 22.8946 172.146 23.1913 171.998 23.5374C171.874 23.8836 171.788 24.2545 171.738 24.6501Z"/>
<path d="M186.103 35.9622V22.7215C186.103 20.8918 186.635 19.4453 187.699 18.3821C188.764 17.3189 190.248 16.7873 192.154 16.7873H198.316V22.1652H194.641C194.221 22.1652 193.874 22.3012 193.602 22.5731C193.354 22.8204 193.231 23.1542 193.231 23.5745V35.9622H186.103Z"/>
<path d="M110.006 68C107.903 68 106.022 67.5797 104.364 66.739C102.73 65.8736 101.444 64.662 100.503 63.1043C99.5626 61.5218 99.0924 59.655 99.0924 57.5038V41.5556H106.851V57.5038C106.851 58.2456 106.975 58.8885 107.222 59.4325C107.495 59.9764 107.866 60.4091 108.336 60.7306C108.806 61.0273 109.363 61.1756 110.006 61.1756C110.65 61.1756 111.207 61.0273 111.677 60.7306C112.147 60.4091 112.506 59.9764 112.754 59.4325C113.026 58.8885 113.162 58.2456 113.162 57.5038V41.5556H120.995V57.5038C120.995 58.2456 121.119 58.8885 121.366 59.4325C121.614 59.9764 121.972 60.4091 122.443 60.7306C122.938 61.0273 123.507 61.1756 124.15 61.1756C124.794 61.1756 125.351 61.0273 125.821 60.7306C126.291 60.4091 126.65 59.9764 126.897 59.4325C127.17 58.8885 127.306 58.2456 127.306 57.5038V41.5556H135.027V57.5038C135.027 59.655 134.557 61.5218 133.617 63.1043C132.701 64.662 131.426 65.8736 129.793 66.739C128.159 67.5797 126.279 68 124.15 68C123.185 68 122.269 67.9011 121.403 67.7033C120.562 67.5055 119.77 67.2211 119.027 66.8502C118.31 66.4794 117.654 66.0219 117.06 65.478C116.466 65.9972 115.798 66.4546 115.055 66.8502C114.337 67.2211 113.558 67.5055 112.716 67.7033C111.875 67.9011 110.972 68 110.006 68Z"/>
<path d="M145.451 68C143.843 68 142.395 67.592 141.108 66.7761C139.821 65.9601 138.806 64.8351 138.064 63.401C137.322 61.9421 136.95 60.2484 136.95 58.3198C136.95 56.2675 137.408 54.4625 138.324 52.9048C139.24 51.3224 140.502 50.0861 142.11 49.1959C143.744 48.3058 145.637 47.8607 147.79 47.8607C149.894 47.8607 151.725 48.2934 153.284 49.1588C154.843 49.9995 156.056 51.1864 156.922 52.7194C157.813 54.2277 158.259 55.9832 158.259 57.986V67.5178H151.502V64.662H151.28C150.958 65.3296 150.525 65.923 149.98 66.4423C149.461 66.9368 148.83 67.32 148.087 67.592C147.345 67.864 146.466 68 145.451 68ZM147.642 61.7691C148.31 61.7691 148.891 61.6083 149.386 61.2869C149.906 60.9655 150.302 60.5204 150.574 59.9517C150.871 59.3583 151.02 58.6907 151.02 57.9489C151.02 57.2319 150.871 56.6013 150.574 56.0574C150.302 55.5134 149.906 55.0807 149.386 54.7593C148.891 54.4378 148.31 54.2771 147.642 54.2771C146.998 54.2771 146.417 54.4378 145.897 54.7593C145.377 55.0807 144.969 55.5134 144.672 56.0574C144.4 56.6013 144.263 57.2319 144.263 57.9489C144.263 58.6907 144.4 59.3583 144.672 59.9517C144.969 60.5204 145.377 60.9655 145.897 61.2869C146.417 61.6083 146.998 61.7691 147.642 61.7691Z"/>
<path d="M168.779 68C167.567 68 166.465 67.7033 165.475 67.1099C164.485 66.5164 163.792 65.6634 163.396 64.5507L158.014 48.3058H165.847L168.631 60.8789C168.655 60.9778 168.68 61.0644 168.705 61.1385C168.754 61.188 168.804 61.2127 168.853 61.2127C168.903 61.2127 168.94 61.188 168.965 61.1385C169.014 61.0644 169.051 60.9778 169.076 60.8789L171.86 48.3058H179.545L174.162 64.5507C173.766 65.6634 173.073 66.5164 172.083 67.1099C171.118 67.7033 170.017 68 168.779 68Z"/>
<path d="M190.796 67.5178C188.643 67.5178 186.725 67.147 185.042 66.4052C183.359 65.6634 182.023 64.5878 181.033 63.1784C180.067 61.7443 179.585 60.0012 179.585 57.9489C179.585 55.6989 180.067 53.832 181.033 52.3485C181.998 50.8649 183.248 49.7523 184.782 49.0105C186.341 48.244 187.975 47.8607 189.682 47.8607C191.439 47.8607 193.011 48.2316 194.397 48.9734C195.807 49.6904 196.921 50.7289 197.738 52.0889C198.579 53.4488 199 55.0807 199 56.9846C199 57.4544 198.975 57.9984 198.926 58.6165C198.876 59.2099 198.802 59.7168 198.703 60.1372H186.898C186.997 60.5575 187.183 60.916 187.455 61.2127C187.727 61.4847 188.098 61.6825 188.569 61.8062C189.039 61.9298 189.571 61.9916 190.165 61.9916H197.033V67.5178H190.796ZM186.564 56.2057H192.429C192.429 55.909 192.392 55.6247 192.318 55.3527C192.244 55.0807 192.12 54.8334 191.947 54.6109C191.798 54.3636 191.613 54.1535 191.39 53.9804C191.167 53.7826 190.895 53.6342 190.573 53.5353C190.276 53.4364 189.942 53.387 189.571 53.387C189.101 53.387 188.68 53.4611 188.309 53.6095C187.962 53.7579 187.665 53.9557 187.418 54.2029C187.17 54.4502 186.972 54.7469 186.824 55.0931C186.7 55.4392 186.613 55.8101 186.564 56.2057Z"/>
</mask>
<path d="M47 35.9622V10H62.9628C64.3734 10 65.648 10.2967 66.7864 10.8901C67.9496 11.4836 68.8776 12.3119 69.5706 13.3751C70.2635 14.4383 70.61 15.687 70.61 17.1211C70.61 17.8381 70.4739 18.5304 70.2017 19.198C69.9542 19.8656 69.5953 20.4838 69.1251 21.0525C68.6796 21.5965 68.1476 22.0786 67.5288 22.499C68.2713 22.9193 68.9148 23.4509 69.4592 24.0938C70.0284 24.7119 70.4615 25.4166 70.7585 26.2078C71.0802 26.9744 71.2411 27.7903 71.2411 28.6557C71.2411 30.1145 70.8823 31.4003 70.1646 32.513C69.4716 33.6009 68.5312 34.4539 67.3432 35.0721C66.1553 35.6655 64.8436 35.9622 63.4082 35.9622H47ZM55.0185 29.8796H61.5892C61.9852 29.8796 62.3193 29.7931 62.5915 29.62C62.8638 29.4469 63.0741 29.212 63.2226 28.9153C63.3959 28.5939 63.4825 28.2477 63.4825 27.8769C63.4825 27.506 63.3959 27.1845 63.2226 26.9125C63.0741 26.6158 62.8638 26.3809 62.5915 26.2078C62.3193 26.0348 61.9852 25.9482 61.5892 25.9482H55.0185V29.8796ZM55.0185 20.014H60.6611C61.0324 20.014 61.3541 19.9275 61.6263 19.7544C61.8986 19.5566 62.1089 19.3217 62.2574 19.0497C62.4059 18.753 62.4802 18.4439 62.4802 18.1225C62.4802 17.7763 62.4059 17.4672 62.2574 17.1952C62.1089 16.9233 61.8986 16.7007 61.6263 16.5276C61.3789 16.3546 61.0571 16.268 60.6611 16.268H55.0185V20.014Z" fill="#232323"/>
<path d="M73.0819 35.9622V22.7215C73.0819 20.8918 73.614 19.4453 74.6782 18.3821C75.7423 17.3189 77.2272 16.7873 79.1329 16.7873H85.2952V22.1652H81.6201C81.1994 22.1652 80.8529 22.3012 80.5807 22.5731C80.3332 22.8204 80.2094 23.1542 80.2094 23.5745V35.9622H73.0819Z" fill="#232323"/>
<path d="M96.7583 36.4073C94.8279 36.4073 93.0584 35.987 91.4498 35.1463C89.8659 34.3056 88.5913 33.1311 87.6261 31.6228C86.6857 30.0898 86.2155 28.3343 86.2155 26.3562C86.2155 24.3781 86.6857 22.635 87.6261 21.1267C88.5913 19.6184 89.8782 18.4439 91.4869 17.6032C93.0955 16.7378 94.8651 16.3051 96.7954 16.3051C98.7258 16.3051 100.483 16.7378 102.067 17.6032C103.651 18.4439 104.913 19.6184 105.853 21.1267C106.794 22.635 107.264 24.3781 107.264 26.3562C107.264 28.3343 106.794 30.0898 105.853 31.6228C104.913 33.1311 103.638 34.3056 102.03 35.1463C100.446 35.987 98.6887 36.4073 96.7583 36.4073ZM96.7583 30.028C97.4265 30.028 98.0205 29.8673 98.5402 29.5459C99.0599 29.2244 99.4559 28.7917 99.7281 28.2477C100.025 27.679 100.174 27.0362 100.174 26.3191C100.174 25.6021 100.025 24.9716 99.7281 24.4276C99.4559 23.8836 99.0599 23.4509 98.5402 23.1295C98.0205 22.808 97.4265 22.6473 96.7583 22.6473C96.0901 22.6473 95.4962 22.808 94.9764 23.1295C94.4567 23.4509 94.0484 23.8836 93.7514 24.4276C93.4544 24.9716 93.3059 25.6021 93.3059 26.3191C93.3059 27.0362 93.4544 27.679 93.7514 28.2477C94.0484 28.7917 94.4567 29.2244 94.9764 29.5459C95.4962 29.8673 96.0901 30.028 96.7583 30.028Z" fill="#232323"/>
<path d="M117.432 36.4444C116.046 36.4444 114.722 36.1724 113.46 35.6284C112.223 35.0597 111.208 34.2314 110.416 33.1435C109.649 32.0308 109.265 30.6462 109.265 28.9895V16.7502H116.356V29.6571C116.356 29.8796 116.405 30.0775 116.504 30.2505C116.603 30.3989 116.739 30.5225 116.912 30.6214C117.086 30.7203 117.259 30.7698 117.432 30.7698C117.63 30.7698 117.803 30.7203 117.952 30.6214C118.1 30.5225 118.224 30.3989 118.323 30.2505C118.422 30.0775 118.472 29.8796 118.472 29.6571V23.76C118.472 22.1281 118.855 20.7558 119.622 19.6431C120.414 18.5304 121.429 17.7021 122.666 17.1582C123.929 16.5895 125.265 16.3051 126.676 16.3051C128.111 16.3051 129.448 16.5895 130.685 17.1582C131.922 17.7021 132.925 18.5304 133.692 19.6431C134.484 20.7558 134.88 22.1281 134.88 23.76V29.6571C134.88 29.8796 134.929 30.0775 135.028 30.2505C135.127 30.3989 135.263 30.5225 135.437 30.6214C135.61 30.7203 135.783 30.7698 135.956 30.7698C136.154 30.7698 136.328 30.7203 136.476 30.6214C136.649 30.5225 136.785 30.3989 136.884 30.2505C136.983 30.0775 137.033 29.8796 137.033 29.6571V16.7502H144.161V28.9895C144.161 30.6462 143.765 32.0308 142.973 33.1435C142.205 34.2314 141.191 35.0597 139.929 35.6284C138.691 36.1724 137.367 36.4444 135.956 36.4444C134.57 36.4444 133.246 36.1724 131.984 35.6284C130.747 35.0597 129.732 34.2314 128.94 33.1435C128.148 32.0308 127.752 30.6462 127.752 28.9895V23.0924C127.752 22.8451 127.703 22.6473 127.604 22.499C127.505 22.3259 127.369 22.1899 127.195 22.091C127.047 21.9921 126.874 21.9426 126.676 21.9426C126.502 21.9426 126.329 21.9921 126.156 22.091C125.983 22.1899 125.847 22.3259 125.748 22.499C125.649 22.6473 125.599 22.8451 125.599 23.0924V28.9895C125.599 30.6462 125.203 32.0308 124.411 33.1435C123.644 34.2314 122.629 35.0597 121.367 35.6284C120.13 36.1724 118.818 36.4444 117.432 36.4444Z" fill="#232323"/>
<path d="M146.588 35.9622V30.9181H155.572C155.77 30.9181 155.931 30.8811 156.054 30.8069C156.178 30.708 156.277 30.5967 156.351 30.4731C156.426 30.3247 156.463 30.1764 156.463 30.028C156.463 29.8796 156.426 29.7437 156.351 29.62C156.277 29.4717 156.178 29.3604 156.054 29.2862C155.931 29.212 155.77 29.175 155.572 29.175H152.676C151.414 29.175 150.263 28.9648 149.224 28.5444C148.184 28.0994 147.355 27.4194 146.736 26.5046C146.143 25.565 145.846 24.3658 145.846 22.9069C145.846 21.7695 146.118 20.7434 146.662 19.8286C147.231 18.889 147.999 18.1472 148.964 17.6032C149.929 17.0345 150.993 16.7502 152.156 16.7502H161.92V21.7943H153.827C153.579 21.7943 153.369 21.8808 153.196 22.0539C153.047 22.227 152.973 22.4248 152.973 22.6473C152.973 22.8698 153.047 23.0677 153.196 23.2407C153.369 23.4138 153.579 23.5004 153.827 23.5004H156.5C157.935 23.5004 159.173 23.7229 160.212 24.168C161.276 24.5883 162.093 25.2559 162.662 26.1708C163.231 27.0856 163.516 28.2725 163.516 29.7313C163.516 30.8687 163.219 31.9072 162.625 32.8468C162.056 33.7863 161.289 34.5405 160.323 35.1092C159.358 35.6779 158.269 35.9622 157.057 35.9622H146.588Z" fill="#232323"/>
<path d="M175.97 35.9622C173.817 35.9622 171.899 35.5913 170.216 34.8496C168.533 34.1078 167.197 33.0322 166.207 31.6228C165.242 30.1887 164.759 28.4455 164.759 26.3933C164.759 24.1432 165.242 22.2764 166.207 20.7929C167.172 19.3093 168.422 18.1966 169.956 17.4549C171.515 16.6884 173.149 16.3051 174.856 16.3051C176.613 16.3051 178.185 16.676 179.571 17.4178C180.982 18.1348 182.095 19.1733 182.912 20.5332C183.753 21.8932 184.174 23.5251 184.174 25.429C184.174 25.8988 184.149 26.4427 184.1 27.0609C184.05 27.6543 183.976 28.1612 183.877 28.5815H172.072C172.171 29.0019 172.357 29.3604 172.629 29.6571C172.901 29.9291 173.272 30.1269 173.743 30.2505C174.213 30.3742 174.745 30.436 175.339 30.436H182.207V35.9622H175.97ZM171.738 24.6501H177.603C177.603 24.3534 177.566 24.0691 177.492 23.7971C177.418 23.5251 177.294 23.2778 177.121 23.0553C176.972 22.808 176.787 22.5979 176.564 22.4248C176.341 22.227 176.069 22.0786 175.747 21.9797C175.45 21.8808 175.116 21.8314 174.745 21.8314C174.275 21.8314 173.854 21.9055 173.483 22.0539C173.136 22.2022 172.839 22.4001 172.592 22.6473C172.344 22.8946 172.146 23.1913 171.998 23.5374C171.874 23.8836 171.788 24.2545 171.738 24.6501Z" fill="#232323"/>
<path d="M186.103 35.9622V22.7215C186.103 20.8918 186.635 19.4453 187.699 18.3821C188.764 17.3189 190.248 16.7873 192.154 16.7873H198.316V22.1652H194.641C194.221 22.1652 193.874 22.3012 193.602 22.5731C193.354 22.8204 193.231 23.1542 193.231 23.5745V35.9622H186.103Z" fill="#232323"/>
<path d="M110.006 68C107.903 68 106.022 67.5797 104.364 66.739C102.73 65.8736 101.444 64.662 100.503 63.1043C99.5626 61.5218 99.0924 59.655 99.0924 57.5038V41.5556H106.851V57.5038C106.851 58.2456 106.975 58.8885 107.222 59.4325C107.495 59.9764 107.866 60.4091 108.336 60.7306C108.806 61.0273 109.363 61.1756 110.006 61.1756C110.65 61.1756 111.207 61.0273 111.677 60.7306C112.147 60.4091 112.506 59.9764 112.754 59.4325C113.026 58.8885 113.162 58.2456 113.162 57.5038V41.5556H120.995V57.5038C120.995 58.2456 121.119 58.8885 121.366 59.4325C121.614 59.9764 121.972 60.4091 122.443 60.7306C122.938 61.0273 123.507 61.1756 124.15 61.1756C124.794 61.1756 125.351 61.0273 125.821 60.7306C126.291 60.4091 126.65 59.9764 126.897 59.4325C127.17 58.8885 127.306 58.2456 127.306 57.5038V41.5556H135.027V57.5038C135.027 59.655 134.557 61.5218 133.617 63.1043C132.701 64.662 131.426 65.8736 129.793 66.739C128.159 67.5797 126.279 68 124.15 68C123.185 68 122.269 67.9011 121.403 67.7033C120.562 67.5055 119.77 67.2211 119.027 66.8502C118.31 66.4794 117.654 66.0219 117.06 65.478C116.466 65.9972 115.798 66.4546 115.055 66.8502C114.337 67.2211 113.558 67.5055 112.716 67.7033C111.875 67.9011 110.972 68 110.006 68Z" fill="#232323"/>
<path d="M145.451 68C143.843 68 142.395 67.592 141.108 66.7761C139.821 65.9601 138.806 64.8351 138.064 63.401C137.322 61.9421 136.95 60.2484 136.95 58.3198C136.95 56.2675 137.408 54.4625 138.324 52.9048C139.24 51.3224 140.502 50.0861 142.11 49.1959C143.744 48.3058 145.637 47.8607 147.79 47.8607C149.894 47.8607 151.725 48.2934 153.284 49.1588C154.843 49.9995 156.056 51.1864 156.922 52.7194C157.813 54.2277 158.259 55.9832 158.259 57.986V67.5178H151.502V64.662H151.28C150.958 65.3296 150.525 65.923 149.98 66.4423C149.461 66.9368 148.83 67.32 148.087 67.592C147.345 67.864 146.466 68 145.451 68ZM147.642 61.7691C148.31 61.7691 148.891 61.6083 149.386 61.2869C149.906 60.9655 150.302 60.5204 150.574 59.9517C150.871 59.3583 151.02 58.6907 151.02 57.9489C151.02 57.2319 150.871 56.6013 150.574 56.0574C150.302 55.5134 149.906 55.0807 149.386 54.7593C148.891 54.4378 148.31 54.2771 147.642 54.2771C146.998 54.2771 146.417 54.4378 145.897 54.7593C145.377 55.0807 144.969 55.5134 144.672 56.0574C144.4 56.6013 144.263 57.2319 144.263 57.9489C144.263 58.6907 144.4 59.3583 144.672 59.9517C144.969 60.5204 145.377 60.9655 145.897 61.2869C146.417 61.6083 146.998 61.7691 147.642 61.7691Z" fill="#232323"/>
<path d="M168.779 68C167.567 68 166.465 67.7033 165.475 67.1099C164.485 66.5164 163.792 65.6634 163.396 64.5507L158.014 48.3058H165.847L168.631 60.8789C168.655 60.9778 168.68 61.0644 168.705 61.1385C168.754 61.188 168.804 61.2127 168.853 61.2127C168.903 61.2127 168.94 61.188 168.965 61.1385C169.014 61.0644 169.051 60.9778 169.076 60.8789L171.86 48.3058H179.545L174.162 64.5507C173.766 65.6634 173.073 66.5164 172.083 67.1099C171.118 67.7033 170.017 68 168.779 68Z" fill="#232323"/>
<path d="M190.796 67.5178C188.643 67.5178 186.725 67.147 185.042 66.4052C183.359 65.6634 182.023 64.5878 181.033 63.1784C180.067 61.7443 179.585 60.0012 179.585 57.9489C179.585 55.6989 180.067 53.832 181.033 52.3485C181.998 50.8649 183.248 49.7523 184.782 49.0105C186.341 48.244 187.975 47.8607 189.682 47.8607C191.439 47.8607 193.011 48.2316 194.397 48.9734C195.807 49.6904 196.921 50.7289 197.738 52.0889C198.579 53.4488 199 55.0807 199 56.9846C199 57.4544 198.975 57.9984 198.926 58.6165C198.876 59.2099 198.802 59.7168 198.703 60.1372H186.898C186.997 60.5575 187.183 60.916 187.455 61.2127C187.727 61.4847 188.098 61.6825 188.569 61.8062C189.039 61.9298 189.571 61.9916 190.165 61.9916H197.033V67.5178H190.796ZM186.564 56.2057H192.429C192.429 55.909 192.392 55.6247 192.318 55.3527C192.244 55.0807 192.12 54.8334 191.947 54.6109C191.798 54.3636 191.613 54.1535 191.39 53.9804C191.167 53.7826 190.895 53.6342 190.573 53.5353C190.276 53.4364 189.942 53.387 189.571 53.387C189.101 53.387 188.68 53.4611 188.309 53.6095C187.962 53.7579 187.665 53.9557 187.418 54.2029C187.17 54.4502 186.972 54.7469 186.824 55.0931C186.7 55.4392 186.613 55.8101 186.564 56.2057Z" fill="#232323"/>
<path d="M47 35.9622V10H62.9628C64.3734 10 65.648 10.2967 66.7864 10.8901C67.9496 11.4836 68.8776 12.3119 69.5706 13.3751C70.2635 14.4383 70.61 15.687 70.61 17.1211C70.61 17.8381 70.4739 18.5304 70.2017 19.198C69.9542 19.8656 69.5953 20.4838 69.1251 21.0525C68.6796 21.5965 68.1476 22.0786 67.5288 22.499C68.2713 22.9193 68.9148 23.4509 69.4592 24.0938C70.0284 24.7119 70.4615 25.4166 70.7585 26.2078C71.0802 26.9744 71.2411 27.7903 71.2411 28.6557C71.2411 30.1145 70.8823 31.4003 70.1646 32.513C69.4716 33.6009 68.5312 34.4539 67.3432 35.0721C66.1553 35.6655 64.8436 35.9622 63.4082 35.9622H47ZM55.0185 29.8796H61.5892C61.9852 29.8796 62.3193 29.7931 62.5915 29.62C62.8638 29.4469 63.0741 29.212 63.2226 28.9153C63.3959 28.5939 63.4825 28.2477 63.4825 27.8769C63.4825 27.506 63.3959 27.1845 63.2226 26.9125C63.0741 26.6158 62.8638 26.3809 62.5915 26.2078C62.3193 26.0348 61.9852 25.9482 61.5892 25.9482H55.0185V29.8796ZM55.0185 20.014H60.6611C61.0324 20.014 61.3541 19.9275 61.6263 19.7544C61.8986 19.5566 62.1089 19.3217 62.2574 19.0497C62.4059 18.753 62.4802 18.4439 62.4802 18.1225C62.4802 17.7763 62.4059 17.4672 62.2574 17.1952C62.1089 16.9233 61.8986 16.7007 61.6263 16.5276C61.3789 16.3546 61.0571 16.268 60.6611 16.268H55.0185V20.014Z" stroke="#EDE6DB" stroke-width="6" mask="url(#path-9-outside-1_16_100)"/>
<path d="M73.0819 35.9622V22.7215C73.0819 20.8918 73.614 19.4453 74.6782 18.3821C75.7423 17.3189 77.2272 16.7873 79.1329 16.7873H85.2952V22.1652H81.6201C81.1994 22.1652 80.8529 22.3012 80.5807 22.5731C80.3332 22.8204 80.2094 23.1542 80.2094 23.5745V35.9622H73.0819Z" stroke="#EDE6DB" stroke-width="6" mask="url(#path-9-outside-1_16_100)"/>
<path d="M96.7583 36.4073C94.8279 36.4073 93.0584 35.987 91.4498 35.1463C89.8659 34.3056 88.5913 33.1311 87.6261 31.6228C86.6857 30.0898 86.2155 28.3343 86.2155 26.3562C86.2155 24.3781 86.6857 22.635 87.6261 21.1267C88.5913 19.6184 89.8782 18.4439 91.4869 17.6032C93.0955 16.7378 94.8651 16.3051 96.7954 16.3051C98.7258 16.3051 100.483 16.7378 102.067 17.6032C103.651 18.4439 104.913 19.6184 105.853 21.1267C106.794 22.635 107.264 24.3781 107.264 26.3562C107.264 28.3343 106.794 30.0898 105.853 31.6228C104.913 33.1311 103.638 34.3056 102.03 35.1463C100.446 35.987 98.6887 36.4073 96.7583 36.4073ZM96.7583 30.028C97.4265 30.028 98.0205 29.8673 98.5402 29.5459C99.0599 29.2244 99.4559 28.7917 99.7281 28.2477C100.025 27.679 100.174 27.0362 100.174 26.3191C100.174 25.6021 100.025 24.9716 99.7281 24.4276C99.4559 23.8836 99.0599 23.4509 98.5402 23.1295C98.0205 22.808 97.4265 22.6473 96.7583 22.6473C96.0901 22.6473 95.4962 22.808 94.9764 23.1295C94.4567 23.4509 94.0484 23.8836 93.7514 24.4276C93.4544 24.9716 93.3059 25.6021 93.3059 26.3191C93.3059 27.0362 93.4544 27.679 93.7514 28.2477C94.0484 28.7917 94.4567 29.2244 94.9764 29.5459C95.4962 29.8673 96.0901 30.028 96.7583 30.028Z" stroke="#EDE6DB" stroke-width="6" mask="url(#path-9-outside-1_16_100)"/>
<path d="M117.432 36.4444C116.046 36.4444 114.722 36.1724 113.46 35.6284C112.223 35.0597 111.208 34.2314 110.416 33.1435C109.649 32.0308 109.265 30.6462 109.265 28.9895V16.7502H116.356V29.6571C116.356 29.8796 116.405 30.0775 116.504 30.2505C116.603 30.3989 116.739 30.5225 116.912 30.6214C117.086 30.7203 117.259 30.7698 117.432 30.7698C117.63 30.7698 117.803 30.7203 117.952 30.6214C118.1 30.5225 118.224 30.3989 118.323 30.2505C118.422 30.0775 118.472 29.8796 118.472 29.6571V23.76C118.472 22.1281 118.855 20.7558 119.622 19.6431C120.414 18.5304 121.429 17.7021 122.666 17.1582C123.929 16.5895 125.265 16.3051 126.676 16.3051C128.111 16.3051 129.448 16.5895 130.685 17.1582C131.922 17.7021 132.925 18.5304 133.692 19.6431C134.484 20.7558 134.88 22.1281 134.88 23.76V29.6571C134.88 29.8796 134.929 30.0775 135.028 30.2505C135.127 30.3989 135.263 30.5225 135.437 30.6214C135.61 30.7203 135.783 30.7698 135.956 30.7698C136.154 30.7698 136.328 30.7203 136.476 30.6214C136.649 30.5225 136.785 30.3989 136.884 30.2505C136.983 30.0775 137.033 29.8796 137.033 29.6571V16.7502H144.161V28.9895C144.161 30.6462 143.765 32.0308 142.973 33.1435C142.205 34.2314 141.191 35.0597 139.929 35.6284C138.691 36.1724 137.367 36.4444 135.956 36.4444C134.57 36.4444 133.246 36.1724 131.984 35.6284C130.747 35.0597 129.732 34.2314 128.94 33.1435C128.148 32.0308 127.752 30.6462 127.752 28.9895V23.0924C127.752 22.8451 127.703 22.6473 127.604 22.499C127.505 22.3259 127.369 22.1899 127.195 22.091C127.047 21.9921 126.874 21.9426 126.676 21.9426C126.502 21.9426 126.329 21.9921 126.156 22.091C125.983 22.1899 125.847 22.3259 125.748 22.499C125.649 22.6473 125.599 22.8451 125.599 23.0924V28.9895C125.599 30.6462 125.203 32.0308 124.411 33.1435C123.644 34.2314 122.629 35.0597 121.367 35.6284C120.13 36.1724 118.818 36.4444 117.432 36.4444Z" stroke="#EDE6DB" stroke-width="6" mask="url(#path-9-outside-1_16_100)"/>
<path d="M146.588 35.9622V30.9181H155.572C155.77 30.9181 155.931 30.8811 156.054 30.8069C156.178 30.708 156.277 30.5967 156.351 30.4731C156.426 30.3247 156.463 30.1764 156.463 30.028C156.463 29.8796 156.426 29.7437 156.351 29.62C156.277 29.4717 156.178 29.3604 156.054 29.2862C155.931 29.212 155.77 29.175 155.572 29.175H152.676C151.414 29.175 150.263 28.9648 149.224 28.5444C148.184 28.0994 147.355 27.4194 146.736 26.5046C146.143 25.565 145.846 24.3658 145.846 22.9069C145.846 21.7695 146.118 20.7434 146.662 19.8286C147.231 18.889 147.999 18.1472 148.964 17.6032C149.929 17.0345 150.993 16.7502 152.156 16.7502H161.92V21.7943H153.827C153.579 21.7943 153.369 21.8808 153.196 22.0539C153.047 22.227 152.973 22.4248 152.973 22.6473C152.973 22.8698 153.047 23.0677 153.196 23.2407C153.369 23.4138 153.579 23.5004 153.827 23.5004H156.5C157.935 23.5004 159.173 23.7229 160.212 24.168C161.276 24.5883 162.093 25.2559 162.662 26.1708C163.231 27.0856 163.516 28.2725 163.516 29.7313C163.516 30.8687 163.219 31.9072 162.625 32.8468C162.056 33.7863 161.289 34.5405 160.323 35.1092C159.358 35.6779 158.269 35.9622 157.057 35.9622H146.588Z" stroke="#EDE6DB" stroke-width="6" mask="url(#path-9-outside-1_16_100)"/>
<path d="M175.97 35.9622C173.817 35.9622 171.899 35.5913 170.216 34.8496C168.533 34.1078 167.197 33.0322 166.207 31.6228C165.242 30.1887 164.759 28.4455 164.759 26.3933C164.759 24.1432 165.242 22.2764 166.207 20.7929C167.172 19.3093 168.422 18.1966 169.956 17.4549C171.515 16.6884 173.149 16.3051 174.856 16.3051C176.613 16.3051 178.185 16.676 179.571 17.4178C180.982 18.1348 182.095 19.1733 182.912 20.5332C183.753 21.8932 184.174 23.5251 184.174 25.429C184.174 25.8988 184.149 26.4427 184.1 27.0609C184.05 27.6543 183.976 28.1612 183.877 28.5815H172.072C172.171 29.0019 172.357 29.3604 172.629 29.6571C172.901 29.9291 173.272 30.1269 173.743 30.2505C174.213 30.3742 174.745 30.436 175.339 30.436H182.207V35.9622H175.97ZM171.738 24.6501H177.603C177.603 24.3534 177.566 24.0691 177.492 23.7971C177.418 23.5251 177.294 23.2778 177.121 23.0553C176.972 22.808 176.787 22.5979 176.564 22.4248C176.341 22.227 176.069 22.0786 175.747 21.9797C175.45 21.8808 175.116 21.8314 174.745 21.8314C174.275 21.8314 173.854 21.9055 173.483 22.0539C173.136 22.2022 172.839 22.4001 172.592 22.6473C172.344 22.8946 172.146 23.1913 171.998 23.5374C171.874 23.8836 171.788 24.2545 171.738 24.6501Z" stroke="#EDE6DB" stroke-width="6" mask="url(#path-9-outside-1_16_100)"/>
<path d="M186.103 35.9622V22.7215C186.103 20.8918 186.635 19.4453 187.699 18.3821C188.764 17.3189 190.248 16.7873 192.154 16.7873H198.316V22.1652H194.641C194.221 22.1652 193.874 22.3012 193.602 22.5731C193.354 22.8204 193.231 23.1542 193.231 23.5745V35.9622H186.103Z" stroke="#EDE6DB" stroke-width="6" mask="url(#path-9-outside-1_16_100)"/>
<path d="M110.006 68C107.903 68 106.022 67.5797 104.364 66.739C102.73 65.8736 101.444 64.662 100.503 63.1043C99.5626 61.5218 99.0924 59.655 99.0924 57.5038V41.5556H106.851V57.5038C106.851 58.2456 106.975 58.8885 107.222 59.4325C107.495 59.9764 107.866 60.4091 108.336 60.7306C108.806 61.0273 109.363 61.1756 110.006 61.1756C110.65 61.1756 111.207 61.0273 111.677 60.7306C112.147 60.4091 112.506 59.9764 112.754 59.4325C113.026 58.8885 113.162 58.2456 113.162 57.5038V41.5556H120.995V57.5038C120.995 58.2456 121.119 58.8885 121.366 59.4325C121.614 59.9764 121.972 60.4091 122.443 60.7306C122.938 61.0273 123.507 61.1756 124.15 61.1756C124.794 61.1756 125.351 61.0273 125.821 60.7306C126.291 60.4091 126.65 59.9764 126.897 59.4325C127.17 58.8885 127.306 58.2456 127.306 57.5038V41.5556H135.027V57.5038C135.027 59.655 134.557 61.5218 133.617 63.1043C132.701 64.662 131.426 65.8736 129.793 66.739C128.159 67.5797 126.279 68 124.15 68C123.185 68 122.269 67.9011 121.403 67.7033C120.562 67.5055 119.77 67.2211 119.027 66.8502C118.31 66.4794 117.654 66.0219 117.06 65.478C116.466 65.9972 115.798 66.4546 115.055 66.8502C114.337 67.2211 113.558 67.5055 112.716 67.7033C111.875 67.9011 110.972 68 110.006 68Z" stroke="#EDE6DB" stroke-width="6" mask="url(#path-9-outside-1_16_100)"/>
<path d="M145.451 68C143.843 68 142.395 67.592 141.108 66.7761C139.821 65.9601 138.806 64.8351 138.064 63.401C137.322 61.9421 136.95 60.2484 136.95 58.3198C136.95 56.2675 137.408 54.4625 138.324 52.9048C139.24 51.3224 140.502 50.0861 142.11 49.1959C143.744 48.3058 145.637 47.8607 147.79 47.8607C149.894 47.8607 151.725 48.2934 153.284 49.1588C154.843 49.9995 156.056 51.1864 156.922 52.7194C157.813 54.2277 158.259 55.9832 158.259 57.986V67.5178H151.502V64.662H151.28C150.958 65.3296 150.525 65.923 149.98 66.4423C149.461 66.9368 148.83 67.32 148.087 67.592C147.345 67.864 146.466 68 145.451 68ZM147.642 61.7691C148.31 61.7691 148.891 61.6083 149.386 61.2869C149.906 60.9655 150.302 60.5204 150.574 59.9517C150.871 59.3583 151.02 58.6907 151.02 57.9489C151.02 57.2319 150.871 56.6013 150.574 56.0574C150.302 55.5134 149.906 55.0807 149.386 54.7593C148.891 54.4378 148.31 54.2771 147.642 54.2771C146.998 54.2771 146.417 54.4378 145.897 54.7593C145.377 55.0807 144.969 55.5134 144.672 56.0574C144.4 56.6013 144.263 57.2319 144.263 57.9489C144.263 58.6907 144.4 59.3583 144.672 59.9517C144.969 60.5204 145.377 60.9655 145.897 61.2869C146.417 61.6083 146.998 61.7691 147.642 61.7691Z" stroke="#EDE6DB" stroke-width="6" mask="url(#path-9-outside-1_16_100)"/>
<path d="M168.779 68C167.567 68 166.465 67.7033 165.475 67.1099C164.485 66.5164 163.792 65.6634 163.396 64.5507L158.014 48.3058H165.847L168.631 60.8789C168.655 60.9778 168.68 61.0644 168.705 61.1385C168.754 61.188 168.804 61.2127 168.853 61.2127C168.903 61.2127 168.94 61.188 168.965 61.1385C169.014 61.0644 169.051 60.9778 169.076 60.8789L171.86 48.3058H179.545L174.162 64.5507C173.766 65.6634 173.073 66.5164 172.083 67.1099C171.118 67.7033 170.017 68 168.779 68Z" stroke="#EDE6DB" stroke-width="6" mask="url(#path-9-outside-1_16_100)"/>
<path d="M190.796 67.5178C188.643 67.5178 186.725 67.147 185.042 66.4052C183.359 65.6634 182.023 64.5878 181.033 63.1784C180.067 61.7443 179.585 60.0012 179.585 57.9489C179.585 55.6989 180.067 53.832 181.033 52.3485C181.998 50.8649 183.248 49.7523 184.782 49.0105C186.341 48.244 187.975 47.8607 189.682 47.8607C191.439 47.8607 193.011 48.2316 194.397 48.9734C195.807 49.6904 196.921 50.7289 197.738 52.0889C198.579 53.4488 199 55.0807 199 56.9846C199 57.4544 198.975 57.9984 198.926 58.6165C198.876 59.2099 198.802 59.7168 198.703 60.1372H186.898C186.997 60.5575 187.183 60.916 187.455 61.2127C187.727 61.4847 188.098 61.6825 188.569 61.8062C189.039 61.9298 189.571 61.9916 190.165 61.9916H197.033V67.5178H190.796ZM186.564 56.2057H192.429C192.429 55.909 192.392 55.6247 192.318 55.3527C192.244 55.0807 192.12 54.8334 191.947 54.6109C191.798 54.3636 191.613 54.1535 191.39 53.9804C191.167 53.7826 190.895 53.6342 190.573 53.5353C190.276 53.4364 189.942 53.387 189.571 53.387C189.101 53.387 188.68 53.4611 188.309 53.6095C187.962 53.7579 187.665 53.9557 187.418 54.2029C187.17 54.4502 186.972 54.7469 186.824 55.0931C186.7 55.4392 186.613 55.8101 186.564 56.2057Z" stroke="#EDE6DB" stroke-width="6" mask="url(#path-9-outside-1_16_100)"/>
</svg>
